<svg data-v-0dd9719b="" version="1.0" xmlns="http://www.w3.org/2000/svg" xmlns:xlink="http://www.w3.org/1999/xlink" width="100%" height="100%" viewBox="0 0 340.000000 250.000000" preserveAspectRatio="xMidYMid meet" color-interpolation-filters="sRGB" style="margin: auto;"> <rect data-v-0dd9719b="" x="0" y="0" width="100%" height="100%" fill="#ffffff" fill-opacity="1" class="background"></rect> <rect data-v-0dd9719b="" x="0" y="0" width="100%" height="100%" fill="url(#watermark)" fill-opacity="1" class="watermarklayer"></rect> <g data-v-0dd9719b="" fill="#333333" class="icon-text-wrapper icon-svg-group iconsvg" transform="translate(56.30999755859375,100)"><g class="iconsvg-imagesvg" transform="translate(0,0)"><g><rect fill="#333333" fill-opacity="0" stroke-width="2" x="0" y="0" width="50" height="50" class="image-rect"></rect> <svg x="0" y="0" width="50" height="50" filtersec="colorsb9051039248" class="image-svg-svg primary" style="overflow: visible;"><svg xmlns="http://www.w3.org/2000/svg" viewBox="0 0 81.5 81.5"><g><g><path fill="#805ff3" d="M0 36.6V0h81.5L45 36.6H0z"></path><path fill="#fd9a96" d="M0 81.5L36.8 45h44.7v36.5H0z"></path><path fill="#7ed8ff" d="M81.5 0v18.5l-62.8 63H0V54.1L54.1 0h27.4z"></path></g></g></svg></svg> <!----></g></g> <g transform="translate(54,3.9450016021728516)"><g data-gra="path-name" fill-rule="" class="tp-name iconsvg-namesvg"><g transform="scale(1)"><g><path d="M42.75-23.58L42.75-28.62 25.79-28.62 25.79-30.46C31.23-30.6 36.31-30.64 39.87-30.78L38.66-36C29.7-35.64 14.85-35.41 4.91-35.41L5.58-30.33C9.18-30.33 13.86-30.33 18.86-30.38L18.86-28.62 1.89-28.62 1.89-23.58 18.86-23.58 18.86-22.27 5.4-22.27 5.4-8.1 18.86-8.1 18.86-6.75 4.91-6.75 4.91-2.83 18.86-2.83 18.86-1.26 2.52-1.26 2.52 4.18 42.12 4.18 42.12-1.26 25.79-1.26 25.79-2.83 39.73-2.83 39.73-6.75 25.79-6.75 25.79-8.1 39.24-8.1 39.24-22.27 25.79-22.27 25.79-23.58ZM18.86-18.22L18.86-16.61 12.51-16.61 12.51-18.22ZM32.13-18.22L32.13-16.61 25.79-16.61 25.79-18.22ZM12.51-11.7L12.51-13.32 18.86-13.32 18.86-11.7ZM25.79-11.7L25.79-13.32 32.13-13.32 32.13-11.7ZM85.54-13.32L85.54-20.75 74.83-20.75 74.83-24.25 67.23-24.25 67.23-20.75 58.45-20.75 58.45-13.32 66.6-13.32C65.3-8.01 62.01-4.81 54.9-0.72 56.11-5.04 56.79-10.21 56.79-18.59L56.79-25.74 86.53-25.74 86.53-33.3 73.35-33.3C73.13-34.34 72.77-35.64 72.41-36.67L64.03-36.67 65.07-33.3 49.5-33.3 49.5-17.59C49.5-8.78 48.28-4.54 45.4 2.07L52.78 5.31C53.55 3.33 54.27 1.48 54.81-0.54L60.8 5.44C65.88 1.84 69.25-1.62 71.46-5.4 74.11-0.85 77.53 2.38 82.17 5.4L87.48-0.85C80.86-4.09 76.86-7.88 75.06-13.32ZM105.57-35.32C106.56-31.99 108.18-25.38 108.76-22.14L116.1-24.25C115.38-27.63 113.71-33.44 112.63-36.59ZM123.25-20.11C125.19-22.99 128.75-28.93 130.54-31.9L124.06-36C122.63-33.03 119.25-27.09 117.09-24.07ZM92.29-31.45C94.09-28.84 97.2-23.27 98.86-20.02L105.34-24.52C103.41-27.9 100.57-32.31 98.55-35.19ZM131.26-11.7L131.26-19.26 91.39-19.26 91.39-11.7ZM113.53-5.94C117-3.1 121.95 1.44 125.69 5.04L131.08-1.08C128.34-3.6 122.17-8.41 118.62-11.03ZM96.79 4.95C101.11 1.57 105.52-2.29 108.99-5.89L103.63-10.84C99.63-6.93 95.58-3.87 91.39-1.03ZM172.3-19.98L173.7-35.32 154.39-35.32 154.39-28.44 166.05-28.44 165.28-19.98 161.14-19.98 161.73-26.5 155.34-26.5 154.3-13.18 168.25-13.18 167.94-4.63C167.8-2.21 167.08-1.8 164.65-1.57L161.73-1.3 163.75 5.4 167.31 5.13C173.07 4.63 174.64 3.55 174.87-2.7 175-5.4 175.14-12.91 175.27-19.98ZM136.66-27.72L140.26-27.72C139.41-24.25 137.29-20.56 134.82-17.82L135.63-7.88 138.28-10.75 138.28 3.69 152.32 3.69 152.32-22.14 145.8-22.14C146.56-23.8 147.19-25.7 147.73-27.72L152.37-27.72 152.37-34.96 136.66-34.96ZM146.88-3.46L144.36-3.46 144.36-14.85 146.88-14.85ZM166.18-10.57L153.85-10.57 153.85-3.55 166.18-3.55Z" transform="translate(-1.8899999856948853, 36.66999816894531)"></path></g> <!----> <!----> <!----> <!----> <!----> <!----> <!----></g></g> <!----></g></g><defs v-gra="od"></defs></svg>